<mxfile host="Electron" modified="2024-04-25T13:39:31.929Z" agent="Mozilla/5.0 (Windows NT 10.0; Win64; x64) AppleWebKit/537.36 (KHTML, like Gecko) draw.io/24.2.5 Chrome/120.0.6099.109 Electron/28.1.0 Safari/537.36" etag="1a5KIXVJBVpO2Vj2pFPL" version="24.2.5" type="device">
  <diagram id="C5RBs43oDa-KdzZeNtuy" name="Page-1">
    <mxGraphModel dx="3011" dy="2219" grid="0" gridSize="10" guides="1" tooltips="1" connect="1" arrows="1" fold="1" page="1" pageScale="1" pageWidth="827" pageHeight="1169" background="#ffffff" math="0" shadow="0">
      <root>
        <mxCell id="WIyWlLk6GJQsqaUBKTNV-0" />
        <mxCell id="WIyWlLk6GJQsqaUBKTNV-1" parent="WIyWlLk6GJQsqaUBKTNV-0" />
        <mxCell id="h2Y3JZYVkYN6LVySSPrw-0" style="edgeStyle=orthogonalEdgeStyle;rounded=0;orthogonalLoop=1;jettySize=auto;html=1;exitX=0.5;exitY=0;exitDx=0;exitDy=0;" parent="WIyWlLk6GJQsqaUBKTNV-1" edge="1">
          <mxGeometry relative="1" as="geometry">
            <mxPoint x="-510.2857142857142" y="312" as="targetPoint" />
            <mxPoint x="-510" y="322.0000000000002" as="sourcePoint" />
          </mxGeometry>
        </mxCell>
        <mxCell id="7G_LxE-Dx79k5qHvBQP1-22" style="edgeStyle=orthogonalEdgeStyle;rounded=0;orthogonalLoop=1;jettySize=auto;html=1;entryX=0.5;entryY=0;entryDx=0;entryDy=0;endArrow=none;endFill=0;strokeWidth=3;strokeColor=#000000;" parent="WIyWlLk6GJQsqaUBKTNV-1" source="SudFrf4cLflyzT05pDyT-9" target="SudFrf4cLflyzT05pDyT-51" edge="1">
          <mxGeometry relative="1" as="geometry">
            <Array as="points">
              <mxPoint x="314" y="573" />
              <mxPoint x="513" y="573" />
            </Array>
          </mxGeometry>
        </mxCell>
        <mxCell id="SudFrf4cLflyzT05pDyT-9" value="Builder" style="swimlane;fontStyle=1;childLayout=stackLayout;horizontal=1;startSize=26;fillColor=none;horizontalStack=0;resizeParent=1;resizeParentMax=0;resizeLast=0;collapsible=1;marginBottom=0;whiteSpace=wrap;html=1;rounded=1;shadow=0;dashed=0;strokeColor=#000000;strokeWidth=3;align=center;verticalAlign=middle;arcSize=4;fontFamily=Helvetica;fontSize=15;fontColor=#000000;labelBorderColor=none;labelBackgroundColor=none;" parent="WIyWlLk6GJQsqaUBKTNV-1" vertex="1">
          <mxGeometry x="163" y="305" width="302" height="184" as="geometry">
            <mxRectangle x="-536" y="518" width="73" height="30" as="alternateBounds" />
          </mxGeometry>
        </mxCell>
        <mxCell id="SudFrf4cLflyzT05pDyT-10" value="+id : Integer" style="text;strokeColor=none;fillColor=none;align=left;verticalAlign=top;spacingLeft=4;spacingRight=4;overflow=hidden;rotatable=0;points=[[0,0.5],[1,0.5]];portConstraint=eastwest;whiteSpace=wrap;html=1;fontFamily=Helvetica;fontSize=15;fontColor=#000000;fontStyle=1;labelBorderColor=none;labelBackgroundColor=none;" parent="SudFrf4cLflyzT05pDyT-9" vertex="1">
          <mxGeometry y="26" width="302" height="26" as="geometry" />
        </mxCell>
        <mxCell id="SudFrf4cLflyzT05pDyT-13" value="+email : String" style="text;strokeColor=none;fillColor=none;align=left;verticalAlign=top;spacingLeft=4;spacingRight=4;overflow=hidden;rotatable=0;points=[[0,0.5],[1,0.5]];portConstraint=eastwest;whiteSpace=wrap;html=1;fontFamily=Helvetica;fontSize=15;fontColor=#000000;fontStyle=1;labelBorderColor=none;labelBackgroundColor=none;" parent="SudFrf4cLflyzT05pDyT-9" vertex="1">
          <mxGeometry y="52" width="302" height="32" as="geometry" />
        </mxCell>
        <mxCell id="SudFrf4cLflyzT05pDyT-12" value="+password : String" style="text;strokeColor=none;fillColor=none;align=left;verticalAlign=top;spacingLeft=4;spacingRight=4;overflow=hidden;rotatable=0;points=[[0,0.5],[1,0.5]];portConstraint=eastwest;whiteSpace=wrap;html=1;fontFamily=Helvetica;fontSize=15;fontColor=#000000;fontStyle=1;labelBorderColor=none;labelBackgroundColor=none;" parent="SudFrf4cLflyzT05pDyT-9" vertex="1">
          <mxGeometry y="84" width="302" height="35" as="geometry" />
        </mxCell>
        <mxCell id="SudFrf4cLflyzT05pDyT-14" value="+billing information : Billing Information" style="text;strokeColor=none;fillColor=none;align=left;verticalAlign=top;spacingLeft=4;spacingRight=4;overflow=hidden;rotatable=0;points=[[0,0.5],[1,0.5]];portConstraint=eastwest;whiteSpace=wrap;html=1;fontFamily=Helvetica;fontSize=15;fontColor=#000000;fontStyle=1;labelBorderColor=none;labelBackgroundColor=none;" parent="SudFrf4cLflyzT05pDyT-9" vertex="1">
          <mxGeometry y="119" width="302" height="35" as="geometry" />
        </mxCell>
        <mxCell id="SudFrf4cLflyzT05pDyT-15" value="+builds: Build" style="text;strokeColor=none;fillColor=none;align=left;verticalAlign=top;spacingLeft=4;spacingRight=4;overflow=hidden;rotatable=0;points=[[0,0.5],[1,0.5]];portConstraint=eastwest;whiteSpace=wrap;html=1;fontFamily=Helvetica;fontSize=15;fontColor=#000000;fontStyle=1;labelBorderColor=none;labelBackgroundColor=none;" parent="SudFrf4cLflyzT05pDyT-9" vertex="1">
          <mxGeometry y="154" width="302" height="30" as="geometry" />
        </mxCell>
        <mxCell id="SudFrf4cLflyzT05pDyT-16" value="User" style="swimlane;fontStyle=1;childLayout=stackLayout;horizontal=1;startSize=26;fillColor=none;horizontalStack=0;resizeParent=1;resizeParentMax=0;resizeLast=0;collapsible=1;marginBottom=0;whiteSpace=wrap;html=1;rounded=1;shadow=0;dashed=0;strokeColor=#000000;strokeWidth=3;align=center;verticalAlign=middle;arcSize=4;fontFamily=Helvetica;fontSize=15;fontColor=#000000;labelBorderColor=none;labelBackgroundColor=none;" parent="WIyWlLk6GJQsqaUBKTNV-1" vertex="1">
          <mxGeometry x="388" y="122" width="140" height="52" as="geometry" />
        </mxCell>
        <mxCell id="SudFrf4cLflyzT05pDyT-20" value="" style="endArrow=block;endSize=10;endFill=0;shadow=0;strokeWidth=3;rounded=0;curved=0;edgeStyle=elbowEdgeStyle;elbow=vertical;textShadow=1;labelBorderColor=none;strokeColor=#000000;fontColor=#000000;labelBackgroundColor=none;fontSize=15;fontStyle=1;exitX=0.5;exitY=0;exitDx=0;exitDy=0;entryX=0.5;entryY=1;entryDx=0;entryDy=0;" parent="WIyWlLk6GJQsqaUBKTNV-1" source="SudFrf4cLflyzT05pDyT-9" target="SudFrf4cLflyzT05pDyT-16" edge="1">
          <mxGeometry width="160" relative="1" as="geometry">
            <mxPoint x="460" y="320" as="sourcePoint" />
            <mxPoint x="380" y="240" as="targetPoint" />
            <Array as="points">
              <mxPoint x="396" y="210" />
            </Array>
          </mxGeometry>
        </mxCell>
        <mxCell id="7G_LxE-Dx79k5qHvBQP1-21" style="edgeStyle=orthogonalEdgeStyle;rounded=0;orthogonalLoop=1;jettySize=auto;html=1;entryX=0.5;entryY=0;entryDx=0;entryDy=0;strokeColor=#000000;endArrow=none;endFill=0;strokeWidth=3;" parent="WIyWlLk6GJQsqaUBKTNV-1" source="SudFrf4cLflyzT05pDyT-21" target="SudFrf4cLflyzT05pDyT-51" edge="1">
          <mxGeometry relative="1" as="geometry">
            <Array as="points">
              <mxPoint x="579" y="573" />
              <mxPoint x="513" y="573" />
            </Array>
          </mxGeometry>
        </mxCell>
        <mxCell id="SudFrf4cLflyzT05pDyT-21" value="Guest" style="swimlane;fontStyle=1;childLayout=stackLayout;horizontal=1;startSize=26;fillColor=none;horizontalStack=0;resizeParent=1;resizeParentMax=0;resizeLast=0;collapsible=1;marginBottom=0;whiteSpace=wrap;html=1;rounded=1;shadow=0;dashed=0;strokeColor=#000000;strokeWidth=3;align=center;verticalAlign=middle;arcSize=4;fontFamily=Helvetica;fontSize=15;fontColor=#000000;labelBorderColor=none;labelBackgroundColor=none;" parent="WIyWlLk6GJQsqaUBKTNV-1" vertex="1">
          <mxGeometry x="511" y="305" width="140" height="52" as="geometry" />
        </mxCell>
        <mxCell id="SudFrf4cLflyzT05pDyT-23" value="" style="endArrow=block;endSize=10;endFill=0;shadow=0;strokeWidth=3;rounded=0;curved=0;edgeStyle=elbowEdgeStyle;elbow=vertical;textShadow=1;labelBorderColor=none;strokeColor=#000000;fontColor=#000000;labelBackgroundColor=none;fontSize=15;fontStyle=1;exitX=0.5;exitY=0;exitDx=0;exitDy=0;entryX=0.5;entryY=1;entryDx=0;entryDy=0;" parent="WIyWlLk6GJQsqaUBKTNV-1" source="SudFrf4cLflyzT05pDyT-21" target="SudFrf4cLflyzT05pDyT-16" edge="1">
          <mxGeometry width="160" relative="1" as="geometry">
            <mxPoint x="499" y="298" as="sourcePoint" />
            <mxPoint x="313" y="187" as="targetPoint" />
            <Array as="points">
              <mxPoint x="527" y="210" />
            </Array>
          </mxGeometry>
        </mxCell>
        <mxCell id="7G_LxE-Dx79k5qHvBQP1-16" style="edgeStyle=orthogonalEdgeStyle;rounded=0;orthogonalLoop=1;jettySize=auto;html=1;entryX=0;entryY=0.5;entryDx=0;entryDy=0;strokeColor=#000000;strokeWidth=3;endArrow=none;endFill=0;" parent="WIyWlLk6GJQsqaUBKTNV-1" source="SudFrf4cLflyzT05pDyT-24" target="SudFrf4cLflyzT05pDyT-14" edge="1">
          <mxGeometry relative="1" as="geometry">
            <Array as="points">
              <mxPoint x="-35" y="442" />
              <mxPoint x="-35" y="442" />
            </Array>
          </mxGeometry>
        </mxCell>
        <mxCell id="9n1EK0OfZM4VXQbrMRpr-3" style="edgeStyle=orthogonalEdgeStyle;rounded=0;orthogonalLoop=1;jettySize=auto;html=1;entryX=0.5;entryY=0;entryDx=0;entryDy=0;dashed=1;dashPattern=12 12;strokeColor=#000000;strokeWidth=3;align=center;verticalAlign=middle;fontFamily=Helvetica;fontSize=15;fontColor=#000000;fontStyle=1;labelBorderColor=none;labelBackgroundColor=none;endArrow=open;endFill=0;endSize=10;" edge="1" parent="WIyWlLk6GJQsqaUBKTNV-1" source="SudFrf4cLflyzT05pDyT-24" target="SudFrf4cLflyzT05pDyT-97">
          <mxGeometry relative="1" as="geometry" />
        </mxCell>
        <mxCell id="SudFrf4cLflyzT05pDyT-24" value="Billing&lt;div&gt;Information&lt;/div&gt;" style="swimlane;fontStyle=1;childLayout=stackLayout;horizontal=1;startSize=44;fillColor=none;horizontalStack=0;resizeParent=1;resizeParentMax=0;resizeLast=0;collapsible=1;marginBottom=0;whiteSpace=wrap;html=1;rounded=1;shadow=0;dashed=0;strokeColor=#000000;strokeWidth=3;align=center;verticalAlign=middle;arcSize=4;fontFamily=Helvetica;fontSize=15;fontColor=#000000;labelBorderColor=none;labelBackgroundColor=none;" parent="WIyWlLk6GJQsqaUBKTNV-1" vertex="1">
          <mxGeometry x="-689.5" y="312" width="231" height="253" as="geometry">
            <mxRectangle x="-536" y="518" width="73" height="30" as="alternateBounds" />
          </mxGeometry>
        </mxCell>
        <mxCell id="SudFrf4cLflyzT05pDyT-25" value="+builder : Builder" style="text;strokeColor=none;fillColor=none;align=left;verticalAlign=top;spacingLeft=4;spacingRight=4;overflow=hidden;rotatable=0;points=[[0,0.5],[1,0.5]];portConstraint=eastwest;whiteSpace=wrap;html=1;fontFamily=Helvetica;fontSize=15;fontColor=#000000;fontStyle=1;labelBorderColor=none;labelBackgroundColor=none;" parent="SudFrf4cLflyzT05pDyT-24" vertex="1">
          <mxGeometry y="44" width="231" height="26" as="geometry" />
        </mxCell>
        <mxCell id="SudFrf4cLflyzT05pDyT-26" value="+name : String" style="text;strokeColor=none;fillColor=none;align=left;verticalAlign=top;spacingLeft=4;spacingRight=4;overflow=hidden;rotatable=0;points=[[0,0.5],[1,0.5]];portConstraint=eastwest;whiteSpace=wrap;html=1;fontFamily=Helvetica;fontSize=15;fontColor=#000000;fontStyle=1;labelBorderColor=none;labelBackgroundColor=none;" parent="SudFrf4cLflyzT05pDyT-24" vertex="1">
          <mxGeometry y="70" width="231" height="26" as="geometry" />
        </mxCell>
        <mxCell id="SudFrf4cLflyzT05pDyT-27" value="+surname : String" style="text;strokeColor=none;fillColor=none;align=left;verticalAlign=top;spacingLeft=4;spacingRight=4;overflow=hidden;rotatable=0;points=[[0,0.5],[1,0.5]];portConstraint=eastwest;whiteSpace=wrap;html=1;fontFamily=Helvetica;fontSize=15;fontColor=#000000;fontStyle=1;labelBorderColor=none;labelBackgroundColor=none;" parent="SudFrf4cLflyzT05pDyT-24" vertex="1">
          <mxGeometry y="96" width="231" height="35" as="geometry" />
        </mxCell>
        <mxCell id="SudFrf4cLflyzT05pDyT-28" value="+address : String" style="text;strokeColor=none;fillColor=none;align=left;verticalAlign=top;spacingLeft=4;spacingRight=4;overflow=hidden;rotatable=0;points=[[0,0.5],[1,0.5]];portConstraint=eastwest;whiteSpace=wrap;html=1;fontFamily=Helvetica;fontSize=15;fontColor=#000000;fontStyle=1;labelBorderColor=none;labelBackgroundColor=none;" parent="SudFrf4cLflyzT05pDyT-24" vertex="1">
          <mxGeometry y="131" width="231" height="32" as="geometry" />
        </mxCell>
        <mxCell id="SudFrf4cLflyzT05pDyT-29" value="+postal code : Integer" style="text;strokeColor=none;fillColor=none;align=left;verticalAlign=top;spacingLeft=4;spacingRight=4;overflow=hidden;rotatable=0;points=[[0,0.5],[1,0.5]];portConstraint=eastwest;whiteSpace=wrap;html=1;fontFamily=Helvetica;fontSize=15;fontColor=#000000;fontStyle=1;labelBorderColor=none;labelBackgroundColor=none;" parent="SudFrf4cLflyzT05pDyT-24" vertex="1">
          <mxGeometry y="163" width="231" height="30" as="geometry" />
        </mxCell>
        <mxCell id="SudFrf4cLflyzT05pDyT-30" value="+city : String" style="text;strokeColor=none;fillColor=none;align=left;verticalAlign=top;spacingLeft=4;spacingRight=4;overflow=hidden;rotatable=0;points=[[0,0.5],[1,0.5]];portConstraint=eastwest;whiteSpace=wrap;html=1;fontFamily=Helvetica;fontSize=15;fontColor=#000000;fontStyle=1;labelBorderColor=none;labelBackgroundColor=none;" parent="SudFrf4cLflyzT05pDyT-24" vertex="1">
          <mxGeometry y="193" width="231" height="30" as="geometry" />
        </mxCell>
        <mxCell id="SudFrf4cLflyzT05pDyT-31" value="+country : String" style="text;strokeColor=none;fillColor=none;align=left;verticalAlign=top;spacingLeft=4;spacingRight=4;overflow=hidden;rotatable=0;points=[[0,0.5],[1,0.5]];portConstraint=eastwest;whiteSpace=wrap;html=1;fontFamily=Helvetica;fontSize=15;fontColor=#000000;fontStyle=1;labelBorderColor=none;labelBackgroundColor=none;" parent="SudFrf4cLflyzT05pDyT-24" vertex="1">
          <mxGeometry y="223" width="231" height="30" as="geometry" />
        </mxCell>
        <mxCell id="SudFrf4cLflyzT05pDyT-32" value="&lt;i style=&quot;font-size: 15px;&quot;&gt;Building Mode&lt;/i&gt;" style="swimlane;fontStyle=1;childLayout=stackLayout;horizontal=1;startSize=30;horizontalStack=0;resizeParent=1;resizeParentMax=0;resizeLast=0;collapsible=1;marginBottom=0;whiteSpace=wrap;html=1;textShadow=1;labelBorderColor=none;strokeColor=#000000;fontColor=#000000;labelBackgroundColor=none;fillColor=none;fontSize=15;strokeWidth=3;rounded=1;shadow=0;dashed=0;align=center;verticalAlign=middle;arcSize=4;fontFamily=Helvetica;" parent="WIyWlLk6GJQsqaUBKTNV-1" vertex="1">
          <mxGeometry x="847" y="122" width="120" height="80" as="geometry" />
        </mxCell>
        <mxCell id="SudFrf4cLflyzT05pDyT-34" value="Beginner Mode" style="swimlane;fontStyle=1;childLayout=stackLayout;horizontal=1;startSize=30;horizontalStack=0;resizeParent=1;resizeParentMax=0;resizeLast=0;collapsible=1;marginBottom=0;whiteSpace=wrap;html=1;textShadow=1;labelBorderColor=none;strokeColor=#000000;fontColor=#000000;labelBackgroundColor=none;fillColor=none;fontSize=15;strokeWidth=3;rounded=1;shadow=0;dashed=0;align=center;verticalAlign=middle;arcSize=4;fontFamily=Helvetica;" parent="WIyWlLk6GJQsqaUBKTNV-1" vertex="1">
          <mxGeometry x="687" y="282" width="120" height="80" as="geometry" />
        </mxCell>
        <mxCell id="SudFrf4cLflyzT05pDyT-36" value="Normal Mode" style="swimlane;fontStyle=1;childLayout=stackLayout;horizontal=1;startSize=30;horizontalStack=0;resizeParent=1;resizeParentMax=0;resizeLast=0;collapsible=1;marginBottom=0;whiteSpace=wrap;html=1;textShadow=1;labelBorderColor=none;strokeColor=#000000;fontColor=#000000;labelBackgroundColor=none;fillColor=none;fontSize=15;strokeWidth=3;rounded=1;shadow=0;dashed=0;align=center;verticalAlign=middle;arcSize=4;fontFamily=Helvetica;" parent="WIyWlLk6GJQsqaUBKTNV-1" vertex="1">
          <mxGeometry x="847" y="282" width="120" height="80" as="geometry" />
        </mxCell>
        <mxCell id="SudFrf4cLflyzT05pDyT-38" value="Expert Mode" style="swimlane;fontStyle=1;childLayout=stackLayout;horizontal=1;startSize=30;horizontalStack=0;resizeParent=1;resizeParentMax=0;resizeLast=0;collapsible=1;marginBottom=0;whiteSpace=wrap;html=1;textShadow=1;labelBorderColor=none;strokeColor=#000000;fontColor=#000000;labelBackgroundColor=none;fillColor=none;fontSize=15;strokeWidth=3;rounded=1;shadow=0;dashed=0;align=center;verticalAlign=middle;arcSize=4;fontFamily=Helvetica;" parent="WIyWlLk6GJQsqaUBKTNV-1" vertex="1">
          <mxGeometry x="1007" y="282" width="120" height="80" as="geometry" />
        </mxCell>
        <mxCell id="SudFrf4cLflyzT05pDyT-40" style="edgeStyle=orthogonalEdgeStyle;rounded=0;orthogonalLoop=1;jettySize=auto;html=1;entryX=0.5;entryY=1;entryDx=0;entryDy=0;dashed=1;dashPattern=12 12;endArrow=block;endFill=0;endSize=10;textShadow=1;labelBorderColor=none;strokeColor=#000000;fontColor=#000000;labelBackgroundColor=none;strokeWidth=3;fontSize=15;fontStyle=1;exitX=0.5;exitY=0;exitDx=0;exitDy=0;" parent="WIyWlLk6GJQsqaUBKTNV-1" source="SudFrf4cLflyzT05pDyT-38" edge="1">
          <mxGeometry relative="1" as="geometry">
            <Array as="points">
              <mxPoint x="1075" y="282" />
              <mxPoint x="1075" y="242" />
              <mxPoint x="915" y="242" />
            </Array>
            <mxPoint x="1075" y="282" as="sourcePoint" />
            <mxPoint x="915" y="202" as="targetPoint" />
          </mxGeometry>
        </mxCell>
        <mxCell id="SudFrf4cLflyzT05pDyT-42" style="edgeStyle=orthogonalEdgeStyle;rounded=0;orthogonalLoop=1;jettySize=auto;html=1;entryX=0.5;entryY=1;entryDx=0;entryDy=0;dashed=1;dashPattern=12 12;endArrow=block;endFill=0;endSize=10;textShadow=1;labelBorderColor=none;strokeColor=#000000;fontColor=#000000;labelBackgroundColor=none;strokeWidth=3;fontSize=15;fontStyle=1" parent="WIyWlLk6GJQsqaUBKTNV-1" edge="1">
          <mxGeometry relative="1" as="geometry">
            <mxPoint x="915" y="282" as="sourcePoint" />
            <mxPoint x="915" y="202" as="targetPoint" />
          </mxGeometry>
        </mxCell>
        <mxCell id="SudFrf4cLflyzT05pDyT-43" style="edgeStyle=orthogonalEdgeStyle;rounded=0;orthogonalLoop=1;jettySize=auto;html=1;entryX=0.5;entryY=1;entryDx=0;entryDy=0;dashed=1;dashPattern=12 12;endArrow=block;endFill=0;endSize=10;textShadow=1;labelBorderColor=none;strokeColor=#000000;fontColor=#000000;labelBackgroundColor=none;strokeWidth=3;fontSize=15;fontStyle=1" parent="WIyWlLk6GJQsqaUBKTNV-1" edge="1">
          <mxGeometry relative="1" as="geometry">
            <Array as="points">
              <mxPoint x="755" y="242" />
              <mxPoint x="915" y="242" />
            </Array>
            <mxPoint x="755" y="282" as="sourcePoint" />
            <mxPoint x="915" y="202" as="targetPoint" />
          </mxGeometry>
        </mxCell>
        <mxCell id="SudFrf4cLflyzT05pDyT-51" value="Build" style="swimlane;fontStyle=1;childLayout=stackLayout;horizontal=1;startSize=26;fillColor=none;horizontalStack=0;resizeParent=1;resizeParentMax=0;resizeLast=0;collapsible=1;marginBottom=0;whiteSpace=wrap;html=1;rounded=1;shadow=0;dashed=0;strokeColor=#000000;strokeWidth=3;align=center;verticalAlign=middle;arcSize=4;fontFamily=Helvetica;fontSize=15;fontColor=#000000;labelBorderColor=none;labelBackgroundColor=none;" parent="WIyWlLk6GJQsqaUBKTNV-1" vertex="1">
          <mxGeometry x="443" y="740" width="149" height="52" as="geometry">
            <mxRectangle x="-536" y="518" width="73" height="30" as="alternateBounds" />
          </mxGeometry>
        </mxCell>
        <mxCell id="SudFrf4cLflyzT05pDyT-52" value="+PC part : PC Part" style="text;strokeColor=none;fillColor=none;align=left;verticalAlign=top;spacingLeft=4;spacingRight=4;overflow=hidden;rotatable=0;points=[[0,0.5],[1,0.5]];portConstraint=eastwest;whiteSpace=wrap;html=1;fontFamily=Helvetica;fontSize=15;fontColor=#000000;fontStyle=1;labelBorderColor=none;labelBackgroundColor=none;" parent="SudFrf4cLflyzT05pDyT-51" vertex="1">
          <mxGeometry y="26" width="149" height="26" as="geometry" />
        </mxCell>
        <mxCell id="SudFrf4cLflyzT05pDyT-67" value="PC Part" style="swimlane;fontStyle=1;childLayout=stackLayout;horizontal=1;startSize=26;fillColor=none;horizontalStack=0;resizeParent=1;resizeParentMax=0;resizeLast=0;collapsible=1;marginBottom=0;whiteSpace=wrap;html=1;rounded=1;shadow=0;dashed=0;strokeColor=#000000;strokeWidth=3;align=center;verticalAlign=middle;arcSize=4;fontFamily=Helvetica;fontSize=15;fontColor=#000000;labelBorderColor=none;labelBackgroundColor=none;" parent="WIyWlLk6GJQsqaUBKTNV-1" vertex="1">
          <mxGeometry x="430" y="877" width="176" height="143" as="geometry">
            <mxRectangle x="-536" y="518" width="73" height="30" as="alternateBounds" />
          </mxGeometry>
        </mxCell>
        <mxCell id="SudFrf4cLflyzT05pDyT-68" value="+id : Integer" style="text;strokeColor=none;fillColor=none;align=left;verticalAlign=top;spacingLeft=4;spacingRight=4;overflow=hidden;rotatable=0;points=[[0,0.5],[1,0.5]];portConstraint=eastwest;whiteSpace=wrap;html=1;fontFamily=Helvetica;fontSize=15;fontColor=#000000;fontStyle=1;labelBorderColor=none;labelBackgroundColor=none;" parent="SudFrf4cLflyzT05pDyT-67" vertex="1">
          <mxGeometry y="26" width="176" height="26" as="geometry" />
        </mxCell>
        <mxCell id="SudFrf4cLflyzT05pDyT-69" value="+name : String" style="text;strokeColor=none;fillColor=none;align=left;verticalAlign=top;spacingLeft=4;spacingRight=4;overflow=hidden;rotatable=0;points=[[0,0.5],[1,0.5]];portConstraint=eastwest;whiteSpace=wrap;html=1;fontFamily=Helvetica;fontSize=15;fontColor=#000000;fontStyle=1;labelBorderColor=none;labelBackgroundColor=none;" parent="SudFrf4cLflyzT05pDyT-67" vertex="1">
          <mxGeometry y="52" width="176" height="26" as="geometry" />
        </mxCell>
        <mxCell id="SudFrf4cLflyzT05pDyT-71" value="+price : Float" style="text;strokeColor=none;fillColor=none;align=left;verticalAlign=top;spacingLeft=4;spacingRight=4;overflow=hidden;rotatable=0;points=[[0,0.5],[1,0.5]];portConstraint=eastwest;whiteSpace=wrap;html=1;fontFamily=Helvetica;fontSize=15;fontColor=#000000;fontStyle=1;labelBorderColor=none;labelBackgroundColor=none;" parent="SudFrf4cLflyzT05pDyT-67" vertex="1">
          <mxGeometry y="78" width="176" height="32" as="geometry" />
        </mxCell>
        <mxCell id="SudFrf4cLflyzT05pDyT-72" value="+availability : Boolean" style="text;strokeColor=none;fillColor=none;align=left;verticalAlign=top;spacingLeft=4;spacingRight=4;overflow=hidden;rotatable=0;points=[[0,0.5],[1,0.5]];portConstraint=eastwest;whiteSpace=wrap;html=1;fontFamily=Helvetica;fontSize=15;fontColor=#000000;fontStyle=1;labelBorderColor=none;labelBackgroundColor=none;" parent="SudFrf4cLflyzT05pDyT-67" vertex="1">
          <mxGeometry y="110" width="176" height="33" as="geometry" />
        </mxCell>
        <mxCell id="SudFrf4cLflyzT05pDyT-78" style="edgeStyle=orthogonalEdgeStyle;rounded=1;orthogonalLoop=1;jettySize=auto;html=1;endSize=10;endArrow=block;endFill=0;entryX=0.5;entryY=1;entryDx=0;entryDy=0;exitX=0.5;exitY=0;exitDx=0;exitDy=0;textShadow=1;labelBorderColor=none;strokeColor=#000000;fontColor=#000000;labelBackgroundColor=none;strokeWidth=3;fontSize=15;fontStyle=1;shadow=0;dashed=0;align=center;verticalAlign=middle;arcSize=4;fontFamily=Helvetica;startSize=30;fillColor=none;" parent="WIyWlLk6GJQsqaUBKTNV-1" source="SudFrf4cLflyzT05pDyT-88" edge="1">
          <mxGeometry relative="1" as="geometry">
            <mxPoint x="648" y="1232" as="sourcePoint" />
            <mxPoint x="509" y="1112" as="targetPoint" />
            <Array as="points">
              <mxPoint x="509" y="1152" />
              <mxPoint x="509" y="1152" />
            </Array>
          </mxGeometry>
        </mxCell>
        <mxCell id="SudFrf4cLflyzT05pDyT-79" style="edgeStyle=orthogonalEdgeStyle;rounded=1;orthogonalLoop=1;jettySize=auto;html=1;endSize=10;endArrow=block;endFill=0;exitX=0.5;exitY=0;exitDx=0;exitDy=0;entryX=0.5;entryY=1;entryDx=0;entryDy=0;textShadow=1;labelBorderColor=none;strokeColor=#000000;fontColor=#000000;labelBackgroundColor=none;strokeWidth=3;fontSize=15;fontStyle=1;shadow=0;dashed=0;align=center;verticalAlign=middle;arcSize=4;fontFamily=Helvetica;startSize=30;fillColor=none;" parent="WIyWlLk6GJQsqaUBKTNV-1" source="SudFrf4cLflyzT05pDyT-93" edge="1">
          <mxGeometry relative="1" as="geometry">
            <mxPoint x="528.5" y="1242" as="sourcePoint" />
            <mxPoint x="509" y="1112" as="targetPoint" />
            <Array as="points">
              <mxPoint x="389" y="1152" />
              <mxPoint x="509" y="1152" />
            </Array>
          </mxGeometry>
        </mxCell>
        <mxCell id="SudFrf4cLflyzT05pDyT-80" style="edgeStyle=orthogonalEdgeStyle;rounded=1;orthogonalLoop=1;jettySize=auto;html=1;endSize=10;endArrow=block;endFill=0;exitX=0.5;exitY=0;exitDx=0;exitDy=0;entryX=0.5;entryY=1;entryDx=0;entryDy=0;textShadow=1;labelBorderColor=none;strokeColor=#000000;fontColor=#000000;labelBackgroundColor=none;strokeWidth=3;fontSize=15;fontStyle=1;shadow=0;dashed=0;align=center;verticalAlign=middle;arcSize=4;fontFamily=Helvetica;startSize=30;fillColor=none;" parent="WIyWlLk6GJQsqaUBKTNV-1" source="SudFrf4cLflyzT05pDyT-89" edge="1">
          <mxGeometry relative="1" as="geometry">
            <mxPoint x="648" y="1262" as="sourcePoint" />
            <mxPoint x="509" y="1112" as="targetPoint" />
            <Array as="points">
              <mxPoint x="629" y="1152" />
              <mxPoint x="509" y="1152" />
            </Array>
          </mxGeometry>
        </mxCell>
        <mxCell id="SudFrf4cLflyzT05pDyT-81" style="edgeStyle=orthogonalEdgeStyle;rounded=1;orthogonalLoop=1;jettySize=auto;html=1;entryX=0.5;entryY=1;entryDx=0;entryDy=0;endSize=10;endArrow=block;endFill=0;textShadow=1;labelBorderColor=none;strokeColor=#000000;fontColor=#000000;labelBackgroundColor=none;strokeWidth=3;fontSize=15;fontStyle=1;shadow=0;dashed=0;align=center;verticalAlign=middle;arcSize=4;fontFamily=Helvetica;startSize=30;fillColor=none;" parent="WIyWlLk6GJQsqaUBKTNV-1" source="SudFrf4cLflyzT05pDyT-95" edge="1">
          <mxGeometry relative="1" as="geometry">
            <Array as="points">
              <mxPoint x="29" y="1152" />
              <mxPoint x="509" y="1152" />
            </Array>
            <mxPoint x="509" y="1112" as="targetPoint" />
          </mxGeometry>
        </mxCell>
        <mxCell id="SudFrf4cLflyzT05pDyT-82" style="edgeStyle=orthogonalEdgeStyle;rounded=1;orthogonalLoop=1;jettySize=auto;html=1;entryX=0.5;entryY=1;entryDx=0;entryDy=0;endSize=10;endArrow=block;endFill=0;exitX=0.5;exitY=0;exitDx=0;exitDy=0;textShadow=1;labelBorderColor=none;strokeColor=#000000;fontColor=#000000;labelBackgroundColor=none;strokeWidth=3;fontSize=15;fontStyle=1;shadow=0;dashed=0;align=center;verticalAlign=middle;arcSize=4;fontFamily=Helvetica;startSize=30;fillColor=none;" parent="WIyWlLk6GJQsqaUBKTNV-1" source="SudFrf4cLflyzT05pDyT-92" edge="1">
          <mxGeometry relative="1" as="geometry">
            <mxPoint x="389" y="1222" as="sourcePoint" />
            <mxPoint x="509" y="1112" as="targetPoint" />
            <Array as="points">
              <mxPoint x="149" y="1152" />
              <mxPoint x="509" y="1152" />
            </Array>
          </mxGeometry>
        </mxCell>
        <mxCell id="SudFrf4cLflyzT05pDyT-83" style="edgeStyle=orthogonalEdgeStyle;rounded=1;orthogonalLoop=1;jettySize=auto;html=1;entryX=0.5;entryY=1;entryDx=0;entryDy=0;endSize=10;endArrow=block;endFill=0;exitX=0.5;exitY=0;exitDx=0;exitDy=0;textShadow=1;labelBorderColor=none;strokeColor=#000000;fontColor=#000000;labelBackgroundColor=none;strokeWidth=3;fontSize=15;fontStyle=1;shadow=0;dashed=0;align=center;verticalAlign=middle;arcSize=4;fontFamily=Helvetica;startSize=30;fillColor=none;" parent="WIyWlLk6GJQsqaUBKTNV-1" source="SudFrf4cLflyzT05pDyT-87" edge="1">
          <mxGeometry relative="1" as="geometry">
            <mxPoint x="449" y="1172" as="sourcePoint" />
            <mxPoint x="509" y="1112" as="targetPoint" />
            <Array as="points">
              <mxPoint x="269" y="1152" />
              <mxPoint x="509" y="1152" />
            </Array>
          </mxGeometry>
        </mxCell>
        <mxCell id="SudFrf4cLflyzT05pDyT-84" style="edgeStyle=orthogonalEdgeStyle;rounded=1;orthogonalLoop=1;jettySize=auto;html=1;endSize=10;endArrow=block;endFill=0;entryX=0.5;entryY=1;entryDx=0;entryDy=0;textShadow=1;labelBorderColor=none;strokeColor=#000000;fontColor=#000000;labelBackgroundColor=none;strokeWidth=3;fontSize=15;fontStyle=1;shadow=0;dashed=0;align=center;verticalAlign=middle;arcSize=4;fontFamily=Helvetica;startSize=30;fillColor=none;" parent="WIyWlLk6GJQsqaUBKTNV-1" source="SudFrf4cLflyzT05pDyT-94" edge="1">
          <mxGeometry relative="1" as="geometry">
            <mxPoint x="869" y="1422" as="sourcePoint" />
            <mxPoint x="509" y="1112" as="targetPoint" />
            <Array as="points">
              <mxPoint x="869" y="1152" />
              <mxPoint x="509" y="1152" />
            </Array>
          </mxGeometry>
        </mxCell>
        <mxCell id="SudFrf4cLflyzT05pDyT-85" style="edgeStyle=orthogonalEdgeStyle;rounded=1;orthogonalLoop=1;jettySize=auto;html=1;endSize=10;endArrow=block;endFill=0;entryX=0.5;entryY=1;entryDx=0;entryDy=0;exitX=0.5;exitY=0;exitDx=0;exitDy=0;textShadow=1;labelBorderColor=none;strokeColor=#000000;fontColor=#000000;labelBackgroundColor=none;strokeWidth=3;fontSize=15;fontStyle=1;shadow=0;dashed=0;align=center;verticalAlign=middle;arcSize=4;fontFamily=Helvetica;startSize=30;fillColor=none;" parent="WIyWlLk6GJQsqaUBKTNV-1" source="SudFrf4cLflyzT05pDyT-90" edge="1">
          <mxGeometry relative="1" as="geometry">
            <mxPoint x="714" y="1202" as="sourcePoint" />
            <mxPoint x="509" y="1112" as="targetPoint" />
            <Array as="points">
              <mxPoint x="749" y="1152" />
              <mxPoint x="509" y="1152" />
            </Array>
          </mxGeometry>
        </mxCell>
        <mxCell id="SudFrf4cLflyzT05pDyT-86" style="edgeStyle=orthogonalEdgeStyle;rounded=1;orthogonalLoop=1;jettySize=auto;html=1;endSize=10;endArrow=block;endFill=0;exitX=0.5;exitY=0;exitDx=0;exitDy=0;entryX=0.5;entryY=1;entryDx=0;entryDy=0;textShadow=1;labelBorderColor=none;strokeColor=#000000;fontColor=#000000;labelBackgroundColor=none;strokeWidth=3;fontSize=15;fontStyle=1;shadow=0;dashed=0;align=center;verticalAlign=middle;arcSize=4;fontFamily=Helvetica;startSize=30;fillColor=none;" parent="WIyWlLk6GJQsqaUBKTNV-1" source="SudFrf4cLflyzT05pDyT-91" edge="1">
          <mxGeometry relative="1" as="geometry">
            <mxPoint x="899" y="1202" as="sourcePoint" />
            <mxPoint x="509" y="1112" as="targetPoint" />
            <Array as="points">
              <mxPoint x="989" y="1152" />
              <mxPoint x="509" y="1152" />
            </Array>
          </mxGeometry>
        </mxCell>
        <mxCell id="SudFrf4cLflyzT05pDyT-87" value="GPU" style="swimlane;fontStyle=1;childLayout=stackLayout;horizontal=1;startSize=30;horizontalStack=0;resizeParent=1;resizeParentMax=0;resizeLast=0;collapsible=1;marginBottom=0;whiteSpace=wrap;html=1;textShadow=1;labelBorderColor=none;strokeColor=#000000;fontColor=#000000;labelBackgroundColor=none;fillColor=none;fontSize=15;strokeWidth=3;rounded=1;shadow=0;dashed=0;align=center;verticalAlign=middle;arcSize=4;fontFamily=Helvetica;" parent="WIyWlLk6GJQsqaUBKTNV-1" vertex="1">
          <mxGeometry x="209" y="1192" width="120" height="80" as="geometry" />
        </mxCell>
        <mxCell id="SudFrf4cLflyzT05pDyT-88" value="RAM" style="swimlane;fontStyle=1;childLayout=stackLayout;horizontal=1;startSize=30;horizontalStack=0;resizeParent=1;resizeParentMax=0;resizeLast=0;collapsible=1;marginBottom=0;whiteSpace=wrap;html=1;textShadow=1;labelBorderColor=none;strokeColor=#000000;fontColor=#000000;labelBackgroundColor=none;fillColor=none;fontSize=15;strokeWidth=3;rounded=1;shadow=0;dashed=0;align=center;verticalAlign=middle;arcSize=4;fontFamily=Helvetica;" parent="WIyWlLk6GJQsqaUBKTNV-1" vertex="1">
          <mxGeometry x="449" y="1192" width="120" height="80" as="geometry" />
        </mxCell>
        <mxCell id="SudFrf4cLflyzT05pDyT-89" value="Case" style="swimlane;fontStyle=1;childLayout=stackLayout;horizontal=1;startSize=30;horizontalStack=0;resizeParent=1;resizeParentMax=0;resizeLast=0;collapsible=1;marginBottom=0;whiteSpace=wrap;html=1;textShadow=1;labelBorderColor=none;strokeColor=#000000;fontColor=#000000;labelBackgroundColor=none;fillColor=none;fontSize=15;strokeWidth=3;rounded=1;shadow=0;dashed=0;align=center;verticalAlign=middle;arcSize=4;fontFamily=Helvetica;" parent="WIyWlLk6GJQsqaUBKTNV-1" vertex="1">
          <mxGeometry x="569" y="1312" width="120" height="80" as="geometry" />
        </mxCell>
        <mxCell id="SudFrf4cLflyzT05pDyT-90" value="PSU" style="swimlane;fontStyle=1;childLayout=stackLayout;horizontal=1;startSize=30;horizontalStack=0;resizeParent=1;resizeParentMax=0;resizeLast=0;collapsible=1;marginBottom=0;whiteSpace=wrap;html=1;textShadow=1;labelBorderColor=none;strokeColor=#000000;fontColor=#000000;labelBackgroundColor=none;fillColor=none;fontSize=15;strokeWidth=3;rounded=1;shadow=0;dashed=0;align=center;verticalAlign=middle;arcSize=4;fontFamily=Helvetica;" parent="WIyWlLk6GJQsqaUBKTNV-1" vertex="1">
          <mxGeometry x="689" y="1192" width="120" height="80" as="geometry" />
        </mxCell>
        <mxCell id="SudFrf4cLflyzT05pDyT-91" value="Motherboard" style="swimlane;fontStyle=1;childLayout=stackLayout;horizontal=1;startSize=30;horizontalStack=0;resizeParent=1;resizeParentMax=0;resizeLast=0;collapsible=1;marginBottom=0;whiteSpace=wrap;html=1;textShadow=1;labelBorderColor=none;strokeColor=#000000;fontColor=#000000;labelBackgroundColor=none;fillColor=none;fontSize=15;strokeWidth=3;rounded=1;shadow=0;dashed=0;align=center;verticalAlign=middle;arcSize=4;fontFamily=Helvetica;" parent="WIyWlLk6GJQsqaUBKTNV-1" vertex="1">
          <mxGeometry x="929" y="1192" width="120" height="80" as="geometry" />
        </mxCell>
        <mxCell id="SudFrf4cLflyzT05pDyT-92" value="Cooling System" style="swimlane;fontStyle=1;childLayout=stackLayout;horizontal=1;startSize=30;horizontalStack=0;resizeParent=1;resizeParentMax=0;resizeLast=0;collapsible=1;marginBottom=0;whiteSpace=wrap;html=1;textShadow=1;labelBorderColor=none;strokeColor=#000000;fontColor=#000000;labelBackgroundColor=none;fillColor=none;fontSize=15;strokeWidth=3;rounded=1;shadow=0;dashed=0;align=center;verticalAlign=middle;arcSize=4;fontFamily=Helvetica;" parent="WIyWlLk6GJQsqaUBKTNV-1" vertex="1">
          <mxGeometry x="89" y="1312" width="120" height="80" as="geometry" />
        </mxCell>
        <mxCell id="SudFrf4cLflyzT05pDyT-93" value="Drive" style="swimlane;fontStyle=1;childLayout=stackLayout;horizontal=1;startSize=30;horizontalStack=0;resizeParent=1;resizeParentMax=0;resizeLast=0;collapsible=1;marginBottom=0;whiteSpace=wrap;html=1;textShadow=1;labelBorderColor=none;strokeColor=#000000;fontColor=#000000;labelBackgroundColor=none;fillColor=none;fontSize=15;strokeWidth=3;rounded=1;shadow=0;dashed=0;align=center;verticalAlign=middle;arcSize=4;fontFamily=Helvetica;" parent="WIyWlLk6GJQsqaUBKTNV-1" vertex="1">
          <mxGeometry x="329" y="1312" width="120" height="80" as="geometry" />
        </mxCell>
        <mxCell id="SudFrf4cLflyzT05pDyT-94" value="Lighting" style="swimlane;fontStyle=1;childLayout=stackLayout;horizontal=1;startSize=30;horizontalStack=0;resizeParent=1;resizeParentMax=0;resizeLast=0;collapsible=1;marginBottom=0;whiteSpace=wrap;html=1;textShadow=1;labelBorderColor=none;strokeColor=#000000;fontColor=#000000;labelBackgroundColor=none;fillColor=none;fontSize=15;strokeWidth=3;rounded=1;shadow=0;dashed=0;align=center;verticalAlign=middle;arcSize=4;fontFamily=Helvetica;" parent="WIyWlLk6GJQsqaUBKTNV-1" vertex="1">
          <mxGeometry x="809" y="1312" width="120" height="80" as="geometry" />
        </mxCell>
        <mxCell id="SudFrf4cLflyzT05pDyT-95" value="CPU" style="swimlane;fontStyle=1;childLayout=stackLayout;horizontal=1;startSize=30;horizontalStack=0;resizeParent=1;resizeParentMax=0;resizeLast=0;collapsible=1;marginBottom=0;whiteSpace=wrap;html=1;textShadow=1;labelBorderColor=none;strokeColor=#000000;fontColor=#000000;labelBackgroundColor=none;fillColor=none;fontSize=15;strokeWidth=3;rounded=1;shadow=0;dashed=0;align=center;verticalAlign=middle;arcSize=4;fontFamily=Helvetica;" parent="WIyWlLk6GJQsqaUBKTNV-1" vertex="1">
          <mxGeometry x="-31" y="1192" width="120" height="80" as="geometry" />
        </mxCell>
        <mxCell id="SudFrf4cLflyzT05pDyT-97" value="Purchase" style="swimlane;fontStyle=1;childLayout=stackLayout;horizontal=1;startSize=26;fillColor=none;horizontalStack=0;resizeParent=1;resizeParentMax=0;resizeLast=0;collapsible=1;marginBottom=0;whiteSpace=wrap;html=1;rounded=1;shadow=0;dashed=0;strokeColor=#000000;strokeWidth=3;align=center;verticalAlign=middle;arcSize=4;fontFamily=Helvetica;fontSize=15;fontColor=#000000;labelBorderColor=none;labelBackgroundColor=none;" parent="WIyWlLk6GJQsqaUBKTNV-1" vertex="1">
          <mxGeometry x="-738" y="750.5" width="328" height="105" as="geometry">
            <mxRectangle x="-536" y="518" width="73" height="30" as="alternateBounds" />
          </mxGeometry>
        </mxCell>
        <mxCell id="SudFrf4cLflyzT05pDyT-98" value="+PC part : PC Part" style="text;strokeColor=none;fillColor=none;align=left;verticalAlign=top;spacingLeft=4;spacingRight=4;overflow=hidden;rotatable=0;points=[[0,0.5],[1,0.5]];portConstraint=eastwest;whiteSpace=wrap;html=1;fontFamily=Helvetica;fontSize=15;fontColor=#000000;fontStyle=1;labelBorderColor=none;labelBackgroundColor=none;" parent="SudFrf4cLflyzT05pDyT-97" vertex="1">
          <mxGeometry y="26" width="328" height="26" as="geometry" />
        </mxCell>
        <mxCell id="SudFrf4cLflyzT05pDyT-99" value="+billing information : Billing Information" style="text;strokeColor=none;fillColor=none;align=left;verticalAlign=top;spacingLeft=4;spacingRight=4;overflow=hidden;rotatable=0;points=[[0,0.5],[1,0.5]];portConstraint=eastwest;whiteSpace=wrap;html=1;fontFamily=Helvetica;fontSize=15;fontColor=#000000;fontStyle=1;labelBorderColor=none;labelBackgroundColor=none;" parent="SudFrf4cLflyzT05pDyT-97" vertex="1">
          <mxGeometry y="52" width="328" height="27" as="geometry" />
        </mxCell>
        <mxCell id="SudFrf4cLflyzT05pDyT-100" value="+total : Total" style="text;strokeColor=none;fillColor=none;align=left;verticalAlign=top;spacingLeft=4;spacingRight=4;overflow=hidden;rotatable=0;points=[[0,0.5],[1,0.5]];portConstraint=eastwest;whiteSpace=wrap;html=1;fontFamily=Helvetica;fontSize=15;fontColor=#000000;fontStyle=1;labelBorderColor=none;labelBackgroundColor=none;" parent="SudFrf4cLflyzT05pDyT-97" vertex="1">
          <mxGeometry y="79" width="328" height="26" as="geometry" />
        </mxCell>
        <mxCell id="SudFrf4cLflyzT05pDyT-101" value="1" style="edgeLabel;html=1;align=center;verticalAlign=middle;resizable=0;points=[];fontSize=15;labelBackgroundColor=none;textShadow=1;labelBorderColor=none;fontColor=#000000;fontStyle=1" parent="WIyWlLk6GJQsqaUBKTNV-1" vertex="1" connectable="0">
          <mxGeometry x="-608" y="361.9966666666667" as="geometry">
            <mxPoint x="190" y="65" as="offset" />
          </mxGeometry>
        </mxCell>
        <mxCell id="SudFrf4cLflyzT05pDyT-102" value="1" style="edgeLabel;html=1;align=center;verticalAlign=middle;resizable=0;points=[];fontSize=15;labelBackgroundColor=none;textShadow=1;labelBorderColor=none;fontColor=#000000;fontStyle=1" parent="WIyWlLk6GJQsqaUBKTNV-1" vertex="1" connectable="0">
          <mxGeometry x="-214" y="353.9966666666667" as="geometry">
            <mxPoint x="348" y="65" as="offset" />
          </mxGeometry>
        </mxCell>
        <mxCell id="SudFrf4cLflyzT05pDyT-106" value="Wall of Builds" style="swimlane;fontStyle=1;childLayout=stackLayout;horizontal=1;startSize=26;fillColor=none;horizontalStack=0;resizeParent=1;resizeParentMax=0;resizeLast=0;collapsible=1;marginBottom=0;whiteSpace=wrap;html=1;rounded=1;shadow=0;dashed=0;strokeColor=#000000;strokeWidth=3;align=center;verticalAlign=middle;arcSize=4;fontFamily=Helvetica;fontSize=15;fontColor=#000000;labelBorderColor=none;labelBackgroundColor=none;" parent="WIyWlLk6GJQsqaUBKTNV-1" vertex="1">
          <mxGeometry x="836" y="748" width="140" height="52" as="geometry">
            <mxRectangle x="-536" y="518" width="73" height="30" as="alternateBounds" />
          </mxGeometry>
        </mxCell>
        <mxCell id="SudFrf4cLflyzT05pDyT-107" value="+build : Build" style="text;strokeColor=none;fillColor=none;align=left;verticalAlign=top;spacingLeft=4;spacingRight=4;overflow=hidden;rotatable=0;points=[[0,0.5],[1,0.5]];portConstraint=eastwest;whiteSpace=wrap;html=1;fontFamily=Helvetica;fontSize=15;fontColor=#000000;fontStyle=1;labelBorderColor=none;labelBackgroundColor=none;" parent="SudFrf4cLflyzT05pDyT-106" vertex="1">
          <mxGeometry y="26" width="140" height="26" as="geometry" />
        </mxCell>
        <mxCell id="SudFrf4cLflyzT05pDyT-108" style="edgeStyle=orthogonalEdgeStyle;rounded=0;orthogonalLoop=1;jettySize=auto;html=1;entryX=1;entryY=0.5;entryDx=0;entryDy=0;endArrow=classic;endFill=1;textShadow=1;labelBorderColor=none;strokeColor=#000000;fontColor=#000000;labelBackgroundColor=none;strokeWidth=3;fontSize=15;fontStyle=1;exitX=0;exitY=0.5;exitDx=0;exitDy=0;" parent="WIyWlLk6GJQsqaUBKTNV-1" source="SudFrf4cLflyzT05pDyT-106" target="SudFrf4cLflyzT05pDyT-52" edge="1">
          <mxGeometry relative="1" as="geometry">
            <mxPoint x="816" y="767" as="sourcePoint" />
            <mxPoint x="599" y="762" as="targetPoint" />
            <Array as="points">
              <mxPoint x="836" y="779" />
            </Array>
          </mxGeometry>
        </mxCell>
        <mxCell id="SudFrf4cLflyzT05pDyT-110" value="1" style="edgeLabel;html=1;align=center;verticalAlign=middle;resizable=0;points=[];fontSize=15;labelBackgroundColor=none;textShadow=1;labelBorderColor=none;fontColor=#000000;fontStyle=1" parent="WIyWlLk6GJQsqaUBKTNV-1" vertex="1" connectable="0">
          <mxGeometry x="740" y="564.9966666666667" as="geometry">
            <mxPoint x="76" y="197" as="offset" />
          </mxGeometry>
        </mxCell>
        <mxCell id="SudFrf4cLflyzT05pDyT-111" value="*" style="edgeLabel;html=1;align=center;verticalAlign=middle;resizable=0;points=[];fontSize=15;labelBackgroundColor=none;textShadow=1;labelBorderColor=none;fontColor=#000000;fontStyle=1" parent="WIyWlLk6GJQsqaUBKTNV-1" vertex="1" connectable="0">
          <mxGeometry x="615" y="765.9966666666668" as="geometry" />
        </mxCell>
        <mxCell id="7G_LxE-Dx79k5qHvBQP1-13" style="edgeStyle=orthogonalEdgeStyle;rounded=0;orthogonalLoop=1;jettySize=auto;html=1;entryX=0;entryY=0.5;entryDx=0;entryDy=0;strokeWidth=3;strokeColor=#000000;endArrow=none;endFill=0;" parent="WIyWlLk6GJQsqaUBKTNV-1" source="SudFrf4cLflyzT05pDyT-115" target="SudFrf4cLflyzT05pDyT-51" edge="1">
          <mxGeometry relative="1" as="geometry">
            <Array as="points">
              <mxPoint x="268" y="766" />
            </Array>
          </mxGeometry>
        </mxCell>
        <mxCell id="7G_LxE-Dx79k5qHvBQP1-17" style="edgeStyle=orthogonalEdgeStyle;rounded=0;orthogonalLoop=1;jettySize=auto;html=1;entryX=0;entryY=0.5;entryDx=0;entryDy=0;endArrow=none;endFill=0;strokeColor=#000000;strokeWidth=3;" parent="WIyWlLk6GJQsqaUBKTNV-1" source="SudFrf4cLflyzT05pDyT-115" target="SudFrf4cLflyzT05pDyT-14" edge="1">
          <mxGeometry relative="1" as="geometry" />
        </mxCell>
        <mxCell id="SudFrf4cLflyzT05pDyT-115" value="Rating" style="swimlane;fontStyle=1;childLayout=stackLayout;horizontal=1;startSize=26;fillColor=none;horizontalStack=0;resizeParent=1;resizeParentMax=0;resizeLast=0;collapsible=1;marginBottom=0;whiteSpace=wrap;html=1;rounded=1;shadow=0;dashed=0;strokeColor=#000000;strokeWidth=3;align=center;verticalAlign=middle;arcSize=4;fontFamily=Helvetica;fontSize=15;fontColor=#000000;labelBorderColor=none;labelBackgroundColor=none;" parent="WIyWlLk6GJQsqaUBKTNV-1" vertex="1">
          <mxGeometry x="28" y="676" width="169" height="156" as="geometry">
            <mxRectangle x="-536" y="518" width="73" height="30" as="alternateBounds" />
          </mxGeometry>
        </mxCell>
        <mxCell id="SudFrf4cLflyzT05pDyT-116" value="+builder : Builder" style="text;strokeColor=none;fillColor=none;align=left;verticalAlign=top;spacingLeft=4;spacingRight=4;overflow=hidden;rotatable=0;points=[[0,0.5],[1,0.5]];portConstraint=eastwest;whiteSpace=wrap;html=1;fontFamily=Helvetica;fontSize=15;fontColor=#000000;fontStyle=1;labelBorderColor=none;labelBackgroundColor=none;" parent="SudFrf4cLflyzT05pDyT-115" vertex="1">
          <mxGeometry y="26" width="169" height="26" as="geometry" />
        </mxCell>
        <mxCell id="SudFrf4cLflyzT05pDyT-117" value="+build : Build" style="text;strokeColor=none;fillColor=none;align=left;verticalAlign=top;spacingLeft=4;spacingRight=4;overflow=hidden;rotatable=0;points=[[0,0.5],[1,0.5]];portConstraint=eastwest;whiteSpace=wrap;html=1;fontFamily=Helvetica;fontSize=15;fontColor=#000000;fontStyle=1;labelBorderColor=none;labelBackgroundColor=none;" parent="SudFrf4cLflyzT05pDyT-115" vertex="1">
          <mxGeometry y="52" width="169" height="26" as="geometry" />
        </mxCell>
        <mxCell id="7G_LxE-Dx79k5qHvBQP1-19" value="+liked : Boolean" style="text;strokeColor=none;fillColor=none;align=left;verticalAlign=top;spacingLeft=4;spacingRight=4;overflow=hidden;rotatable=0;points=[[0,0.5],[1,0.5]];portConstraint=eastwest;whiteSpace=wrap;html=1;fontFamily=Helvetica;fontSize=15;fontColor=#000000;fontStyle=1;labelBorderColor=none;labelBackgroundColor=none;" parent="SudFrf4cLflyzT05pDyT-115" vertex="1">
          <mxGeometry y="78" width="169" height="26" as="geometry" />
        </mxCell>
        <mxCell id="7G_LxE-Dx79k5qHvBQP1-20" value="+disliked : Boolean" style="text;strokeColor=none;fillColor=none;align=left;verticalAlign=top;spacingLeft=4;spacingRight=4;overflow=hidden;rotatable=0;points=[[0,0.5],[1,0.5]];portConstraint=eastwest;whiteSpace=wrap;html=1;fontFamily=Helvetica;fontSize=15;fontColor=#000000;fontStyle=1;labelBorderColor=none;labelBackgroundColor=none;" parent="SudFrf4cLflyzT05pDyT-115" vertex="1">
          <mxGeometry y="104" width="169" height="26" as="geometry" />
        </mxCell>
        <mxCell id="SudFrf4cLflyzT05pDyT-118" value="+comment : String" style="text;strokeColor=none;fillColor=none;align=left;verticalAlign=top;spacingLeft=4;spacingRight=4;overflow=hidden;rotatable=0;points=[[0,0.5],[1,0.5]];portConstraint=eastwest;whiteSpace=wrap;html=1;fontFamily=Helvetica;fontSize=15;fontColor=#000000;fontStyle=1;labelBorderColor=none;labelBackgroundColor=none;" parent="SudFrf4cLflyzT05pDyT-115" vertex="1">
          <mxGeometry y="130" width="169" height="26" as="geometry" />
        </mxCell>
        <mxCell id="SudFrf4cLflyzT05pDyT-120" value="1" style="edgeLabel;html=1;align=center;verticalAlign=middle;resizable=0;points=[];fontSize=15;labelBackgroundColor=none;textShadow=1;labelBorderColor=none;fontColor=#000000;fontStyle=1" parent="WIyWlLk6GJQsqaUBKTNV-1" vertex="1" connectable="0">
          <mxGeometry x="725" y="-158.99666666666673" as="geometry">
            <mxPoint x="-125" y="543" as="offset" />
          </mxGeometry>
        </mxCell>
        <mxCell id="SudFrf4cLflyzT05pDyT-121" value="*" style="edgeLabel;html=1;align=center;verticalAlign=middle;resizable=0;points=[];fontSize=15;labelBackgroundColor=none;textShadow=1;labelBorderColor=none;fontColor=#000000;fontStyle=1" parent="WIyWlLk6GJQsqaUBKTNV-1" vertex="1" connectable="0">
          <mxGeometry x="213" y="807.9966666666668" as="geometry">
            <mxPoint x="-763" y="-80" as="offset" />
          </mxGeometry>
        </mxCell>
        <mxCell id="SudFrf4cLflyzT05pDyT-124" value="*" style="edgeLabel;html=1;align=center;verticalAlign=middle;resizable=0;points=[];fontSize=15;labelBackgroundColor=none;textShadow=1;labelBorderColor=none;fontColor=#000000;fontStyle=1" parent="WIyWlLk6GJQsqaUBKTNV-1" vertex="1" connectable="0">
          <mxGeometry x="624" y="684.9966666666668" as="geometry">
            <mxPoint x="-338" y="-178" as="offset" />
          </mxGeometry>
        </mxCell>
        <mxCell id="7G_LxE-Dx79k5qHvBQP1-0" value="Store" style="swimlane;fontStyle=1;childLayout=stackLayout;horizontal=1;startSize=26;fillColor=none;horizontalStack=0;resizeParent=1;resizeParentMax=0;resizeLast=0;collapsible=1;marginBottom=0;whiteSpace=wrap;html=1;rounded=1;shadow=0;dashed=0;strokeColor=#000000;strokeWidth=3;align=center;verticalAlign=middle;arcSize=4;fontFamily=Helvetica;fontSize=15;fontColor=#000000;labelBorderColor=none;labelBackgroundColor=none;" parent="WIyWlLk6GJQsqaUBKTNV-1" vertex="1">
          <mxGeometry x="-310" y="749.5" width="303" height="107" as="geometry">
            <mxRectangle x="-536" y="518" width="73" height="30" as="alternateBounds" />
          </mxGeometry>
        </mxCell>
        <mxCell id="7G_LxE-Dx79k5qHvBQP1-1" value="+PC part : PC Part" style="text;strokeColor=none;fillColor=none;align=left;verticalAlign=top;spacingLeft=4;spacingRight=4;overflow=hidden;rotatable=0;points=[[0,0.5],[1,0.5]];portConstraint=eastwest;whiteSpace=wrap;html=1;fontFamily=Helvetica;fontSize=15;fontColor=#000000;fontStyle=1;labelBorderColor=none;labelBackgroundColor=none;" parent="7G_LxE-Dx79k5qHvBQP1-0" vertex="1">
          <mxGeometry y="26" width="303" height="26" as="geometry" />
        </mxCell>
        <mxCell id="7G_LxE-Dx79k5qHvBQP1-2" value="+billing information : Billing Information" style="text;strokeColor=none;fillColor=none;align=left;verticalAlign=top;spacingLeft=4;spacingRight=4;overflow=hidden;rotatable=0;points=[[0,0.5],[1,0.5]];portConstraint=eastwest;whiteSpace=wrap;html=1;fontFamily=Helvetica;fontSize=15;fontColor=#000000;fontStyle=1;labelBorderColor=none;labelBackgroundColor=none;" parent="7G_LxE-Dx79k5qHvBQP1-0" vertex="1">
          <mxGeometry y="52" width="303" height="29" as="geometry" />
        </mxCell>
        <mxCell id="7G_LxE-Dx79k5qHvBQP1-3" value="+total : Float" style="text;strokeColor=none;fillColor=none;align=left;verticalAlign=top;spacingLeft=4;spacingRight=4;overflow=hidden;rotatable=0;points=[[0,0.5],[1,0.5]];portConstraint=eastwest;whiteSpace=wrap;html=1;fontFamily=Helvetica;fontSize=15;fontColor=#000000;fontStyle=1;labelBorderColor=none;labelBackgroundColor=none;" parent="7G_LxE-Dx79k5qHvBQP1-0" vertex="1">
          <mxGeometry y="81" width="303" height="26" as="geometry" />
        </mxCell>
        <mxCell id="7G_LxE-Dx79k5qHvBQP1-5" style="edgeStyle=orthogonalEdgeStyle;rounded=0;orthogonalLoop=1;jettySize=auto;html=1;entryX=1;entryY=0.5;entryDx=0;entryDy=0;strokeColor=#000000;strokeWidth=3;endArrow=none;endFill=0;" parent="WIyWlLk6GJQsqaUBKTNV-1" source="7G_LxE-Dx79k5qHvBQP1-2" target="SudFrf4cLflyzT05pDyT-99" edge="1">
          <mxGeometry relative="1" as="geometry" />
        </mxCell>
        <mxCell id="7G_LxE-Dx79k5qHvBQP1-6" value="1" style="edgeLabel;html=1;align=center;verticalAlign=middle;resizable=0;points=[];fontSize=15;labelBackgroundColor=none;textShadow=1;labelBorderColor=none;fontColor=#000000;fontStyle=1" parent="WIyWlLk6GJQsqaUBKTNV-1" vertex="1" connectable="0">
          <mxGeometry x="-420" y="723.9966666666667" as="geometry">
            <mxPoint x="90" y="73" as="offset" />
          </mxGeometry>
        </mxCell>
        <mxCell id="7G_LxE-Dx79k5qHvBQP1-8" value="*" style="edgeLabel;html=1;align=center;verticalAlign=middle;resizable=0;points=[];fontSize=15;labelBackgroundColor=none;textShadow=1;labelBorderColor=none;fontColor=#000000;fontStyle=1" parent="WIyWlLk6GJQsqaUBKTNV-1" vertex="1" connectable="0">
          <mxGeometry x="-138" y="844.9966666666668" as="geometry">
            <mxPoint x="-264" y="-39" as="offset" />
          </mxGeometry>
        </mxCell>
        <mxCell id="7G_LxE-Dx79k5qHvBQP1-9" style="edgeStyle=orthogonalEdgeStyle;rounded=0;orthogonalLoop=1;jettySize=auto;html=1;entryX=0.5;entryY=1;entryDx=0;entryDy=0;endArrow=none;endFill=0;strokeColor=#000000;strokeWidth=3;" parent="WIyWlLk6GJQsqaUBKTNV-1" target="7G_LxE-Dx79k5qHvBQP1-0" edge="1">
          <mxGeometry relative="1" as="geometry">
            <mxPoint x="430" y="972.5000000000005" as="sourcePoint" />
          </mxGeometry>
        </mxCell>
        <mxCell id="7G_LxE-Dx79k5qHvBQP1-10" value="1..*" style="edgeLabel;html=1;align=center;verticalAlign=middle;resizable=0;points=[];fontSize=15;labelBackgroundColor=none;textShadow=1;labelBorderColor=none;fontColor=#000000;fontStyle=1" parent="WIyWlLk6GJQsqaUBKTNV-1" vertex="1" connectable="0">
          <mxGeometry x="-219" y="812.9966666666667" as="geometry">
            <mxPoint x="90" y="73" as="offset" />
          </mxGeometry>
        </mxCell>
        <mxCell id="7G_LxE-Dx79k5qHvBQP1-11" value="1..*" style="edgeLabel;html=1;align=center;verticalAlign=middle;resizable=0;points=[];fontSize=15;labelBackgroundColor=none;textShadow=1;labelBorderColor=none;fontColor=#000000;fontStyle=1" parent="WIyWlLk6GJQsqaUBKTNV-1" vertex="1" connectable="0">
          <mxGeometry x="314" y="876.9966666666667" as="geometry">
            <mxPoint x="90" y="73" as="offset" />
          </mxGeometry>
        </mxCell>
        <mxCell id="7G_LxE-Dx79k5qHvBQP1-14" value="*" style="edgeLabel;html=1;align=center;verticalAlign=middle;resizable=0;points=[];fontSize=15;labelBackgroundColor=none;textShadow=1;labelBorderColor=none;fontColor=#000000;fontStyle=1" parent="WIyWlLk6GJQsqaUBKTNV-1" vertex="1" connectable="0">
          <mxGeometry x="550" y="928.9966666666668" as="geometry">
            <mxPoint x="-338" y="-178" as="offset" />
          </mxGeometry>
        </mxCell>
        <mxCell id="7G_LxE-Dx79k5qHvBQP1-23" value="*" style="edgeLabel;html=1;align=center;verticalAlign=middle;resizable=0;points=[];fontSize=15;labelBackgroundColor=none;textShadow=1;labelBorderColor=none;fontColor=#000000;fontStyle=1" parent="WIyWlLk6GJQsqaUBKTNV-1" vertex="1" connectable="0">
          <mxGeometry x="633" y="773.9966666666668" as="geometry">
            <mxPoint x="-104" y="-47" as="offset" />
          </mxGeometry>
        </mxCell>
        <mxCell id="9n1EK0OfZM4VXQbrMRpr-4" style="edgeStyle=orthogonalEdgeStyle;rounded=0;orthogonalLoop=1;jettySize=auto;html=1;entryX=0.502;entryY=0.962;entryDx=0;entryDy=0;entryPerimeter=0;endArrow=diamond;endFill=0;strokeWidth=4;strokeColor=#000000;" edge="1" parent="WIyWlLk6GJQsqaUBKTNV-1" source="SudFrf4cLflyzT05pDyT-67" target="SudFrf4cLflyzT05pDyT-52">
          <mxGeometry relative="1" as="geometry" />
        </mxCell>
      </root>
    </mxGraphModel>
  </diagram>
</mxfile>
